<svg width="53" height="48" viewBox="0 0 53 48" fill="#3F5C8A" xmlns="http://www.w3.org/2000/svg">
<path d="M25.186 1.04619C25.6529 -0.0791718 27.2471 -0.0791758 27.714 1.04619L33.7406 15.5695C33.9402 16.0505 34.3954 16.3765 34.915 16.4106L50.9661 17.4638C52.2092 17.5454 52.7057 19.1104 51.7369 19.8937L39.4598 29.8204C39.0421 30.1581 38.8606 30.709 38.9957 31.2289L42.9112 46.2907C43.2204 47.4803 41.9265 48.4429 40.8761 47.8047L27.1606 39.4717C26.724 39.2065 26.176 39.2065 25.7394 39.4717L12.0239 47.8047C10.9735 48.4429 9.67957 47.4803 9.98881 46.2907L13.9042 31.2289C14.0394 30.709 13.8579 30.1581 13.4402 29.8204L1.16307 19.8937C0.194343 19.1104 0.690827 17.5454 1.93393 17.4638L17.985 16.4106C18.5046 16.3765 18.9598 16.0505 19.1594 15.5695L25.186 1.04619Z" fill="#F7F7F7"/>
</svg>
