<svg width="52" height="48" viewBox="0 0 52 48" fill="black" xmlns="http://www.w3.org/2000/svg">
<path d="M24.7856 1.04619C25.2525 -0.0791718 26.8467 -0.0791758 27.3136 1.04619L33.3402 15.5695C33.5398 16.0505 33.995 16.3765 34.5146 16.4106L50.5657 17.4638C51.8088 17.5454 52.3053 19.1104 51.3365 19.8937L39.0594 29.8204C38.6417 30.1581 38.4602 30.709 38.5954 31.2289L42.5108 46.2907C42.82 47.4803 41.5261 48.4429 40.4757 47.8047L26.7602 39.4717C26.3236 39.2065 25.7756 39.2065 25.339 39.4717L11.6235 47.8047C10.5731 48.4429 9.27918 47.4803 9.58842 46.2907L13.5039 31.2289C13.639 30.709 13.4575 30.1581 13.0398 29.8204L0.762684 19.8937C-0.206048 19.1104 0.290436 17.5454 1.53354 17.4638L17.5846 16.4106C18.1042 16.3765 18.5594 16.0505 18.759 15.5695L24.7856 1.04619Z" fill="#F7F7F7"/>
</svg>
