<svg width="52" height="48" viewBox="0 0 52 48" fill="none" xmlns="http://www.w3.org/2000/svg">
<path d="M24.8862 1.04619C25.3531 -0.0791718 26.9473 -0.0791758 27.4142 1.04619L33.4408 15.5695C33.6404 16.0505 34.0956 16.3765 34.6152 16.4106L50.6663 17.4638C51.9094 17.5454 52.4058 19.1104 51.4371 19.8937L39.16 29.8204C38.7423 30.1581 38.5608 30.709 38.6959 31.2289L42.6114 46.2907C42.9206 47.4803 41.6267 48.4429 40.5763 47.8047L26.8608 39.4717C26.4242 39.2065 25.8762 39.2065 25.4396 39.4717L11.7241 47.8047C10.6737 48.4429 9.37977 47.4803 9.689 46.2907L13.6044 31.2289C13.7396 30.709 13.5581 30.1581 13.1404 29.8204L0.86327 19.8937C-0.105462 19.1104 0.391022 17.5454 1.63413 17.4638L17.6852 16.4106C18.2048 16.3765 18.66 16.0505 18.8596 15.5695L24.8862 1.04619Z" fill="#F7F7F7"/>
</svg>
