<svg width="203" height="82" viewBox="0 0 203 82" fill="none" xmlns="http://www.w3.org/2000/svg">
<path d="M39.488 64H3.264V61.184L9.088 59.072V23.744L3.264 21.632V18.816H21.376V21.632L15.552 23.744V59.136H34.048L36.16 53.632H39.488V64ZM60.334 64H43.502V61.248L48.878 59.136V36.288H43.502V32.448C45.166 31.6373 47.086 31.232 49.262 31.232C51.4807 31.232 52.974 31.7653 53.742 32.832C54.51 33.856 54.894 35.4347 54.894 37.568V59.136L60.334 61.248V64ZM55.15 23.872C54.1687 24.8533 52.974 25.344 51.566 25.344C50.158 25.344 48.9633 24.8533 47.982 23.872C47.0007 22.8907 46.51 21.696 46.51 20.288C46.51 18.88 47.0007 17.6853 47.982 16.704C48.9633 15.7227 50.158 15.232 51.566 15.232C52.974 15.232 54.1687 15.7227 55.15 16.704C56.1313 17.6853 56.622 18.88 56.622 20.288C56.622 21.696 56.1313 22.8907 55.15 23.872ZM67.248 19.648H61.872V15.808C63.536 14.9973 65.456 14.592 67.632 14.592C69.8507 14.592 71.344 15.1253 72.112 16.192C72.88 17.216 73.264 18.7947 73.264 20.928V34.752C75.312 32.4053 78.3627 31.232 82.416 31.232C85.7867 31.232 88.9013 32.384 91.76 34.688C93.2107 35.8827 94.3627 37.5893 95.216 39.808C96.112 41.984 96.56 44.5227 96.56 47.424C96.56 50.3253 96.0693 52.928 95.088 55.232C94.1067 57.4933 92.784 59.2853 91.12 60.608C87.7493 63.296 83.824 64.64 79.344 64.64C77.2533 64.64 75.184 64.3413 73.136 63.744C71.1307 63.104 69.6373 62.464 68.656 61.824L67.248 60.928V19.648ZM79.344 59.648C82.8 59.648 85.488 58.6453 87.408 56.64C89.3707 54.592 90.352 51.712 90.352 48C90.352 44.288 89.4133 41.408 87.536 39.36C85.6587 37.2693 83.6533 36.224 81.52 36.224C77.9787 36.224 75.2267 37.2693 73.264 39.36V58.56L74.032 58.752C76.2933 59.3493 78.064 59.648 79.344 59.648Z" fill="#5583CB"/>
<path d="M138.475 59.648V63.488C136.811 64.2987 134.933 64.704 132.843 64.704C130.752 64.704 129.301 64.2773 128.491 63.424C127.68 62.528 127.211 61.2267 127.083 59.52C126.528 60.16 125.888 60.8 125.163 61.44C124.437 62.08 123.221 62.784 121.515 63.552C119.851 64.32 118.101 64.704 116.267 64.704C112.939 64.704 110.443 63.7867 108.779 61.952C107.115 60.0747 106.283 57.536 106.283 54.336V36.288H100.907V32.448C102.571 31.6373 104.491 31.232 106.667 31.232C108.885 31.232 110.379 31.7653 111.147 32.832C111.915 33.856 112.299 35.4347 112.299 37.568V52.096C112.299 54.6133 112.704 56.4907 113.515 57.728C114.368 58.9653 115.883 59.584 118.059 59.584C120.235 59.584 122.091 59.1787 123.627 58.368C125.163 57.5147 126.315 56.64 127.083 55.744V36.288H121.707V32.448C123.371 31.6373 125.291 31.232 127.467 31.232C129.685 31.232 131.179 31.7653 131.947 32.832C132.715 33.856 133.099 35.4347 133.099 37.568V59.648H138.475ZM201.498 64H184.666V61.248L189.786 59.136V43.84C189.786 41.3227 189.359 39.4453 188.506 38.208C187.695 36.9707 186.202 36.352 184.026 36.352C180.613 36.352 177.69 37.568 175.258 40C175.386 40.512 175.45 41.0453 175.45 41.6V59.136L181.146 61.248V64H164.314V61.248L169.434 59.136V43.84C169.434 41.3227 169.007 39.4453 168.154 38.208C167.343 36.9707 165.85 36.352 163.674 36.352C160.175 36.352 157.039 37.7387 154.266 40.512V59.136L159.706 61.248V64H142.874V61.248L148.25 59.136V36.288H142.874V32.448C144.538 31.6373 146.437 31.232 148.57 31.232C150.703 31.232 152.154 31.7013 152.922 32.64C153.733 33.5787 154.181 34.9867 154.266 36.864C154.863 36.096 155.759 35.2213 156.954 34.24C159.471 32.2347 162.309 31.232 165.466 31.232C170.159 31.232 173.231 33.1093 174.682 36.864C177.797 33.1093 181.509 31.232 185.818 31.232C189.146 31.232 191.642 32.1707 193.306 34.048C194.97 35.8827 195.802 38.4 195.802 41.6V59.136L201.498 61.248V64Z" fill="#3C5987"/>
</svg>
